<svg xmlns="http://www.w3.org/2000/svg" viewBox="0 0 800 600" preserveAspectRatio="xMidYMid meet" role="img" aria-label="SEO Analytics — performance dashboard">
  <defs>
    <linearGradient id="bg" x1="0" y1="0" x2="0" y2="1"><stop offset="0%" stop-color="#0a0f1e"></stop><stop offset="100%" stop-color="#0d1426"></stop></linearGradient>
    <pattern id="grid" x="0" y="0" width="50" height="50" patternUnits="userSpaceOnUse"><path d="M50 0H0V50" fill="none" stroke="#c9a84c" stroke-opacity="0.045"></path></pattern>
    <radialGradient id="glow"><stop offset="0%" stop-color="#c9a84c" stop-opacity="0.15"></stop><stop offset="100%" stop-color="#c9a84c" stop-opacity="0"></stop></radialGradient>
    <linearGradient id="areaG" x1="0" y1="0" x2="0" y2="1"><stop offset="0%" stop-color="#c9a84c" stop-opacity="0.5"></stop><stop offset="100%" stop-color="#c9a84c" stop-opacity="0"></stop></linearGradient>
    <linearGradient id="goldF" x1="0" y1="0" x2="1" y2="1"><stop offset="0%" stop-color="#c9a84c"></stop><stop offset="100%" stop-color="#d4b85f"></stop></linearGradient>
  </defs>
  <rect width="800" height="600" fill="url(#bg)"></rect>
  <rect width="800" height="600" fill="url(#grid)"></rect>
  <ellipse cx="400" cy="320" rx="340" ry="260" fill="url(#glow)"></ellipse>

  
  <rect x="60" y="130" width="680" height="380" rx="14" fill="#1a1f2e" stroke="#2a2f3e" stroke-width="1.5"></rect>
  <rect x="60" y="130" width="680" height="42" rx="14" fill="#0a0f1e"></rect>
  <rect x="60" y="156" width="680" height="16" fill="#0a0f1e"></rect>
  <circle cx="78" cy="153" r="5" fill="#c9a84c"></circle>
  <text x="98" y="158" fill="#fff" font-size="12" font-family="Cairo,sans-serif" font-weight="700">Growth Intelligence Dashboard</text>
  <text x="720" y="158" fill="#666c7a" font-size="10" font-family="Inter,sans-serif" text-anchor="end">Last 30 days · UTC+4</text>

  
  <g>
    <rect x="80" y="190" width="156" height="78" rx="10" fill="rgba(201,168,76,0.08)" stroke="rgba(201,168,76,0.3)"></rect>
    <text x="94" y="210" fill="#666c7a" font-size="10" font-family="Inter,sans-serif" font-weight="700" letter-spacing="1">ORGANIC TRAFFIC</text>
    <text x="94" y="240" fill="#fff" font-size="24" font-family="Cairo,sans-serif" font-weight="800">142.8K</text>
    <text x="94" y="258" fill="#c9a84c" font-size="11" font-family="Inter,sans-serif" font-weight="700">↑ +38.2% MoM</text>
  </g>
  <g>
    <rect x="248" y="190" width="156" height="78" rx="10" fill="rgba(201,168,76,0.08)" stroke="rgba(201,168,76,0.3)"></rect>
    <text x="262" y="210" fill="#666c7a" font-size="10" font-family="Inter,sans-serif" font-weight="700" letter-spacing="1">CONVERSIONS</text>
    <text x="262" y="240" fill="#fff" font-size="24" font-family="Cairo,sans-serif" font-weight="800">2,418</text>
    <text x="262" y="258" fill="#c9a84c" font-size="11" font-family="Inter,sans-serif" font-weight="700">↑ +51.4% MoM</text>
  </g>
  <g>
    <rect x="416" y="190" width="156" height="78" rx="10" fill="rgba(201,168,76,0.08)" stroke="rgba(201,168,76,0.3)"></rect>
    <text x="430" y="210" fill="#666c7a" font-size="10" font-family="Inter,sans-serif" font-weight="700" letter-spacing="1">REVENUE</text>
    <text x="430" y="240" fill="#fff" font-size="24" font-family="Cairo,sans-serif" font-weight="800">$284K</text>
    <text x="430" y="258" fill="#c9a84c" font-size="11" font-family="Inter,sans-serif" font-weight="700">↑ +47.9% MoM</text>
  </g>
  <g>
    <rect x="584" y="190" width="140" height="78" rx="10" fill="url(#goldF)"></rect>
    <text x="598" y="210" fill="#0a0f1e" font-size="10" font-family="Inter,sans-serif" font-weight="700" letter-spacing="1">AVG POSITION</text>
    <text x="598" y="240" fill="#0a0f1e" font-size="24" font-family="Cairo,sans-serif" font-weight="800">3.2</text>
    <text x="598" y="258" fill="#0a0f1e" font-size="11" font-family="Inter,sans-serif" font-weight="700">↑ from 8.4</text>
  </g>

  
  <rect x="80" y="288" width="644" height="200" rx="10" fill="rgba(255,255,255,0.02)" stroke="#2a2f3e"></rect>
  <text x="98" y="310" fill="#666c7a" font-size="10" font-family="Inter,sans-serif" font-weight="700" letter-spacing="1">CLICKS · IMPRESSIONS · CTR</text>

  
  <line x1="100" y1="350" x2="700" y2="350" stroke="#2a2f3e" stroke-dasharray="2 4"></line>
  <line x1="100" y1="400" x2="700" y2="400" stroke="#2a2f3e" stroke-dasharray="2 4"></line>
  <line x1="100" y1="450" x2="700" y2="450" stroke="#2a2f3e" stroke-dasharray="2 4"></line>

  
  <path d="M 100 440 L 160 425 L 220 410 L 280 400 L 340 380 L 400 360 L 460 340 L 520 320 L 580 320 L 640 305 L 700 280 L 700 470 L 100 470 Z" fill="url(#areaG)"></path>
  <path d="M 100 440 L 160 425 L 220 410 L 280 400 L 340 380 L 400 360 L 460 340 L 520 320 L 580 320 L 640 305 L 700 280" fill="none" stroke="#c9a84c" stroke-width="2.5" stroke-linecap="round" stroke-linejoin="round"></path>
  <circle cx="700" cy="280" r="5" fill="#d4b85f" stroke="#0a0f1e" stroke-width="2"></circle>

  
  <path d="M 100 460 L 160 450 L 220 442 L 280 430 L 340 422 L 400 410 L 460 400 L 520 388 L 580 380 L 640 365 L 700 350" fill="none" stroke="#888" stroke-width="1.5" stroke-dasharray="4 4" stroke-linecap="round"></path>

  
  <circle cx="500" cy="310" r="4" fill="#c9a84c"></circle>
  <text x="510" y="314" fill="#b0b0b0" font-size="10" font-family="Inter,sans-serif">Clicks</text>
  <line x1="560" y1="310" x2="572" y2="310" stroke="#888" stroke-width="2" stroke-dasharray="2 2"></line>
  <text x="578" y="314" fill="#b0b0b0" font-size="10" font-family="Inter,sans-serif">Impressions</text>

  <text x="400" y="80" fill="#c9a84c" font-size="13" font-family="Inter,sans-serif" font-weight="700" letter-spacing="6" text-anchor="middle">SEO ANALYTICS</text>
  <text x="400" y="104" fill="#fff" font-size="16" font-family="Cairo,sans-serif" font-weight="700" text-anchor="middle">Revenue-First Reporting · No Vanity Metrics</text>
  <text x="400" y="555" fill="#666c7a" font-size="11" font-family="Inter,sans-serif" font-weight="700" letter-spacing="3" text-anchor="middle">EVERY METRIC TIED TO BUSINESS OUTCOMES</text>
</svg>