<svg xmlns="http://www.w3.org/2000/svg" viewBox="0 0 800 600" preserveAspectRatio="xMidYMid meet" role="img" aria-label="Industrial B2B SEO — enterprise lead generation">
  <defs>
    <linearGradient id="bg" x1="0" y1="0" x2="0" y2="1"><stop offset="0%" stop-color="#0a0f1e"></stop><stop offset="100%" stop-color="#0d1426"></stop></linearGradient>
    <pattern id="dots" x="0" y="0" width="32" height="32" patternUnits="userSpaceOnUse"><circle cx="16" cy="16" r="1" fill="#c9a84c" fill-opacity="0.08"></circle></pattern>
    <radialGradient id="glow"><stop offset="0%" stop-color="#c9a84c" stop-opacity="0.15"></stop><stop offset="100%" stop-color="#c9a84c" stop-opacity="0"></stop></radialGradient>
    <linearGradient id="goldF" x1="0" y1="0" x2="0" y2="1"><stop offset="0%" stop-color="#d4b85f"></stop><stop offset="100%" stop-color="#c9a84c"></stop></linearGradient>
  </defs>
  <rect width="800" height="600" fill="url(#bg)"></rect>
  <rect width="800" height="600" fill="url(#dots)"></rect>
  <ellipse cx="400" cy="320" rx="340" ry="260" fill="url(#glow)"></ellipse>

  
  <g>
    
    <rect x="120" y="340" width="80" height="160" rx="3" fill="rgba(201,168,76,0.1)" stroke="#c9a84c" stroke-width="1.5" stroke-opacity="0.4"></rect>
    <line x1="140" y1="360" x2="180" y2="360" stroke="#c9a84c" stroke-opacity="0.4"></line>
    <line x1="140" y1="380" x2="180" y2="380" stroke="#c9a84c" stroke-opacity="0.4"></line>
    <line x1="140" y1="400" x2="180" y2="400" stroke="#c9a84c" stroke-opacity="0.4"></line>
    <line x1="140" y1="420" x2="180" y2="420" stroke="#c9a84c" stroke-opacity="0.4"></line>

    
    <rect x="210" y="240" width="90" height="260" rx="3" fill="url(#goldF)"></rect>
    <g stroke="#0a0f1e" stroke-width="1" stroke-opacity="0.4">
      <line x1="230" y1="270" x2="280" y2="270"></line><line x1="230" y1="295" x2="280" y2="295"></line>
      <line x1="230" y1="320" x2="280" y2="320"></line><line x1="230" y1="345" x2="280" y2="345"></line>
      <line x1="230" y1="370" x2="280" y2="370"></line><line x1="230" y1="395" x2="280" y2="395"></line>
      <line x1="230" y1="420" x2="280" y2="420"></line><line x1="230" y1="445" x2="280" y2="445"></line>
    </g>
    
    <line x1="255" y1="240" x2="255" y2="210" stroke="#c9a84c" stroke-width="2"></line>
    <circle cx="255" cy="208" r="3" fill="#d4b85f"></circle>

    
    <rect x="310" y="300" width="100" height="200" rx="3" fill="rgba(201,168,76,0.12)" stroke="#c9a84c" stroke-width="1.5" stroke-opacity="0.5"></rect>
    <g stroke="#c9a84c" stroke-opacity="0.4">
      <line x1="330" y1="325" x2="390" y2="325"></line><line x1="330" y1="350" x2="390" y2="350"></line>
      <line x1="330" y1="375" x2="390" y2="375"></line><line x1="330" y1="400" x2="390" y2="400"></line>
      <line x1="330" y1="425" x2="390" y2="425"></line>
    </g>

    
    <rect x="420" y="370" width="160" height="130" rx="3" fill="rgba(201,168,76,0.08)" stroke="#c9a84c" stroke-width="1.5" stroke-opacity="0.4"></rect>
    <polygon points="420,370 500,330 580,370" fill="rgba(201,168,76,0.12)" stroke="#c9a84c" stroke-width="1.5" stroke-opacity="0.5"></polygon>
    <rect x="445" y="295" width="14" height="40" fill="rgba(201,168,76,0.15)" stroke="#c9a84c" stroke-opacity="0.5"></rect>
    <rect x="540" y="295" width="14" height="40" fill="rgba(201,168,76,0.15)" stroke="#c9a84c" stroke-opacity="0.5"></rect>

    
    <rect x="590" y="320" width="90" height="180" rx="3" fill="rgba(201,168,76,0.1)" stroke="#c9a84c" stroke-width="1.5" stroke-opacity="0.4"></rect>
    <g stroke="#c9a84c" stroke-opacity="0.4">
      <line x1="610" y1="345" x2="660" y2="345"></line><line x1="610" y1="370" x2="660" y2="370"></line>
      <line x1="610" y1="395" x2="660" y2="395"></line><line x1="610" y1="420" x2="660" y2="420"></line>
    </g>
  </g>

  
  <line x1="80" y1="500" x2="720" y2="500" stroke="#c9a84c" stroke-width="2"></line>

  
  <g>
    <rect x="60" y="160" width="160" height="50" rx="8" fill="#1a1f2e" stroke="rgba(201,168,76,0.4)"></rect>
    <text x="75" y="180" fill="#c9a84c" font-size="9" font-family="Inter,sans-serif" font-weight="700" letter-spacing="1">QUALIFIED LEADS</text>
    <text x="75" y="200" fill="#fff" font-size="16" font-family="Cairo,sans-serif" font-weight="800">↑ 5× enterprise</text>
  </g>
  <g>
    <rect x="580" y="180" width="160" height="50" rx="8" fill="#1a1f2e" stroke="rgba(201,168,76,0.4)"></rect>
    <text x="595" y="200" fill="#c9a84c" font-size="9" font-family="Inter,sans-serif" font-weight="700" letter-spacing="1">DEAL SIZE</text>
    <text x="595" y="220" fill="#fff" font-size="16" font-family="Cairo,sans-serif" font-weight="800">$120K avg</text>
  </g>

  <text x="400" y="80" fill="#c9a84c" font-size="13" font-family="Inter,sans-serif" font-weight="700" letter-spacing="6" text-anchor="middle">INDUSTRIAL B2B SEO</text>
  <text x="400" y="104" fill="#fff" font-size="16" font-family="Cairo,sans-serif" font-weight="700" text-anchor="middle">Enterprise Lead Generation</text>
  <text x="400" y="560" fill="#666c7a" font-size="11" font-family="Inter,sans-serif" font-weight="700" letter-spacing="3" text-anchor="middle">MANUFACTURING · ENGINEERING · ENTERPRISE</text>
</svg>