<svg xmlns="http://www.w3.org/2000/svg" viewBox="0 0 800 600" preserveAspectRatio="xMidYMid meet" role="img" aria-label="Tailored Website — premium brand-led builds">
  <defs>
    <linearGradient id="bg" x1="0" y1="0" x2="0" y2="1"><stop offset="0%" stop-color="#0a0f1e"></stop><stop offset="100%" stop-color="#0d1426"></stop></linearGradient>
    <pattern id="grid" x="0" y="0" width="50" height="50" patternUnits="userSpaceOnUse"><path d="M50 0H0V50" fill="none" stroke="#c9a84c" stroke-opacity="0.045"></path></pattern>
    <radialGradient id="glow"><stop offset="0%" stop-color="#c9a84c" stop-opacity="0.15"></stop><stop offset="100%" stop-color="#c9a84c" stop-opacity="0"></stop></radialGradient>
    <linearGradient id="goldF" x1="0" y1="0" x2="1" y2="1"><stop offset="0%" stop-color="#c9a84c"></stop><stop offset="100%" stop-color="#d4b85f"></stop></linearGradient>
  </defs>
  <rect width="800" height="600" fill="url(#bg)"></rect>
  <rect width="800" height="600" fill="url(#grid)"></rect>
  <ellipse cx="400" cy="320" rx="340" ry="260" fill="url(#glow)"></ellipse>

  
  <g>
    <rect x="160" y="150" width="500" height="330" rx="14" fill="#1a1f2e" stroke="#c9a84c" stroke-width="1.5"></rect>
    <rect x="160" y="150" width="500" height="32" rx="14" fill="#0a0f1e"></rect>
    <rect x="160" y="170" width="500" height="12" fill="#0a0f1e"></rect>
    <circle cx="180" cy="167" r="4" fill="#c9a84c"></circle>
    <circle cx="194" cy="167" r="4" fill="#666c7a"></circle>
    <circle cx="208" cy="167" r="4" fill="#666c7a"></circle>
    <rect x="260" y="160" width="240" height="14" rx="7" fill="#2a2f3e"></rect>
    <text x="380" y="170" fill="#c9a84c" font-size="9" font-family="Inter,sans-serif" text-anchor="middle">your-brand.com</text>

    
    <rect x="180" y="198" width="460" height="120" rx="6" fill="#0d1426"></rect>
    <rect x="200" y="218" width="60" height="6" rx="3" fill="#c9a84c"></rect>
    <text x="200" y="252" fill="#fff" font-size="20" font-family="Cairo,sans-serif" font-weight="800">Premium Headline</text>
    <text x="200" y="268" fill="#c9a84c" font-size="20" font-family="Cairo,sans-serif" font-weight="800">with brand gold.</text>
    <rect x="200" y="285" width="240" height="6" rx="3" fill="#2a2f3e"></rect>
    <rect x="200" y="297" width="180" height="6" rx="3" fill="#2a2f3e"></rect>
    <rect x="510" y="218" width="110" height="80" rx="6" fill="url(#goldF)"></rect>
    <text x="565" y="263" fill="#0a0f1e" font-size="11" font-family="Cairo,sans-serif" font-weight="800" text-anchor="middle">CTA →</text>

    
    <rect x="180" y="332" width="140" height="130" rx="6" fill="#0d1426" stroke="#2a2f3e"></rect>
    <rect x="195" y="345" width="40" height="40" rx="6" fill="rgba(201,168,76,0.15)" stroke="#c9a84c" stroke-opacity="0.4"></rect>
    <rect x="195" y="395" width="110" height="5" rx="2" fill="#2a2f3e"></rect>
    <rect x="195" y="405" width="90" height="5" rx="2" fill="#2a2f3e"></rect>
    <rect x="195" y="430" width="60" height="5" rx="2" fill="#c9a84c"></rect>

    <rect x="330" y="332" width="140" height="130" rx="6" fill="#0d1426" stroke="#2a2f3e"></rect>
    <rect x="345" y="345" width="40" height="40" rx="6" fill="rgba(201,168,76,0.15)" stroke="#c9a84c" stroke-opacity="0.4"></rect>
    <rect x="345" y="395" width="110" height="5" rx="2" fill="#2a2f3e"></rect>
    <rect x="345" y="405" width="90" height="5" rx="2" fill="#2a2f3e"></rect>
    <rect x="345" y="430" width="60" height="5" rx="2" fill="#c9a84c"></rect>

    <rect x="480" y="332" width="140" height="130" rx="6" fill="#0d1426" stroke="#2a2f3e"></rect>
    <rect x="495" y="345" width="40" height="40" rx="6" fill="rgba(201,168,76,0.15)" stroke="#c9a84c" stroke-opacity="0.4"></rect>
    <rect x="495" y="395" width="110" height="5" rx="2" fill="#2a2f3e"></rect>
    <rect x="495" y="405" width="90" height="5" rx="2" fill="#2a2f3e"></rect>
    <rect x="495" y="430" width="60" height="5" rx="2" fill="#c9a84c"></rect>
  </g>

  
  <g transform="translate(70,210)">
    <rect width="100" height="180" rx="14" fill="#1a1f2e" stroke="#c9a84c" stroke-width="1.5"></rect>
    <rect x="6" y="6" width="88" height="168" rx="10" fill="#0d1426"></rect>
    <rect x="14" y="20" width="40" height="5" rx="2" fill="#c9a84c"></rect>
    <rect x="14" y="35" width="72" height="9" rx="2" fill="#fff"></rect>
    <rect x="14" y="48" width="60" height="6" rx="2" fill="#c9a84c"></rect>
    <rect x="14" y="62" width="72" height="3" rx="1" fill="#2a2f3e"></rect>
    <rect x="14" y="68" width="68" height="3" rx="1" fill="#2a2f3e"></rect>
    <rect x="14" y="82" width="72" height="34" rx="4" fill="url(#goldF)"></rect>
    <rect x="14" y="124" width="72" height="22" rx="4" fill="rgba(201,168,76,0.15)" stroke="#c9a84c" stroke-opacity="0.4"></rect>
  </g>

  
  <g transform="translate(640,200)">
    <circle r="40" fill="#1a1f2e" stroke="#c9a84c" stroke-width="2"></circle>
    <circle r="32" fill="none" stroke="rgba(201,168,76,0.3)" stroke-width="3"></circle>
    <circle r="32" fill="none" stroke="#c9a84c" stroke-width="3" stroke-dasharray="190 25" stroke-linecap="round" transform="rotate(-90)"></circle>
    <text x="0" y="-2" fill="#c9a84c" font-size="20" font-family="Cairo,sans-serif" font-weight="800" text-anchor="middle">98</text>
    <text x="0" y="14" fill="#888" font-size="9" font-family="Inter,sans-serif" text-anchor="middle">Lighthouse</text>
  </g>

  <text x="400" y="80" fill="#c9a84c" font-size="13" font-family="Inter,sans-serif" font-weight="700" letter-spacing="6" text-anchor="middle">TAILORED WEBSITE</text>
  <text x="400" y="104" fill="#fff" font-size="16" font-family="Cairo,sans-serif" font-weight="700" text-anchor="middle">Brand-Led · High-Converting Builds</text>
  <text x="400" y="560" fill="#666c7a" font-size="11" font-family="Inter,sans-serif" font-weight="700" letter-spacing="3" text-anchor="middle">DESIGN · ENGINEERING · CONVERSION · SEO-FIRST</text>
</svg>