<svg xmlns="http://www.w3.org/2000/svg" viewBox="0 0 800 600" preserveAspectRatio="xMidYMid meet" role="img" aria-label="Free SEO audit — magnifier finds opportunities">
  <defs>
    <linearGradient id="bg8" x1="0" y1="0" x2="0" y2="1">
      <stop offset="0%" stop-color="#0a0f1e"></stop>
      <stop offset="100%" stop-color="#0d1426"></stop>
    </linearGradient>
    <pattern id="dots8" x="0" y="0" width="32" height="32" patternUnits="userSpaceOnUse">
      <circle cx="16" cy="16" r="1" fill="#c9a84c" fill-opacity="0.08"></circle>
    </pattern>
    <radialGradient id="glow8">
      <stop offset="0%" stop-color="#c9a84c" stop-opacity="0.2"></stop>
      <stop offset="100%" stop-color="#c9a84c" stop-opacity="0"></stop>
    </radialGradient>
    <radialGradient id="lensGlow" cx="50%" cy="50%" r="50%">
      <stop offset="0%" stop-color="#c9a84c" stop-opacity="0.25"></stop>
      <stop offset="100%" stop-color="#c9a84c" stop-opacity="0"></stop>
    </radialGradient>
  </defs>
  <rect width="800" height="600" fill="url(#bg8)"></rect>
  <rect width="800" height="600" fill="url(#dots8)"></rect>
  <ellipse cx="350" cy="300" rx="320" ry="280" fill="url(#glow8)"></ellipse>

  
  <rect x="100" y="400" width="12" height="50" rx="2" fill="#c9a84c" fill-opacity="0.08"></rect>
  <rect x="150" y="392" width="12" height="58" rx="2" fill="#c9a84c" fill-opacity="0.08"></rect>
  <rect x="200" y="384" width="12" height="66" rx="2" fill="#c9a84c" fill-opacity="0.08"></rect>
  <rect x="250" y="376" width="12" height="74" rx="2" fill="#c9a84c" fill-opacity="0.08"></rect>
  <rect x="300" y="368" width="12" height="82" rx="2" fill="#c9a84c" fill-opacity="0.08"></rect>
  <rect x="350" y="360" width="12" height="90" rx="2" fill="#c9a84c" fill-opacity="0.08"></rect>
  <rect x="400" y="352" width="12" height="98" rx="2" fill="#c9a84c" fill-opacity="0.08"></rect>
  <rect x="450" y="344" width="12" height="106" rx="2" fill="#c9a84c" fill-opacity="0.08"></rect>
  <rect x="500" y="336" width="12" height="114" rx="2" fill="#c9a84c" fill-opacity="0.08"></rect>
  <rect x="550" y="328" width="12" height="122" rx="2" fill="#c9a84c" fill-opacity="0.08"></rect>
  <rect x="600" y="320" width="12" height="130" rx="2" fill="#c9a84c" fill-opacity="0.08"></rect>
  <rect x="650" y="312" width="12" height="138" rx="2" fill="#c9a84c" fill-opacity="0.08"></rect>

  
  <ellipse cx="380" cy="320" rx="180" ry="20" fill="#000" fill-opacity="0.4"></ellipse>

  
  <circle cx="350" cy="280" r="160" fill="url(#lensGlow)"></circle>
  <circle cx="350" cy="280" r="160" fill="#0a0f1e" fill-opacity="0.3"></circle>
  <circle cx="350" cy="280" r="160" fill="none" stroke="#c9a84c" stroke-width="5"></circle>
  <circle cx="350" cy="280" r="148" fill="none" stroke="#d4b85f" stroke-width="1.5" stroke-opacity="0.4"></circle>
  <ellipse cx="290" cy="220" rx="50" ry="25" fill="#fff" fill-opacity="0.05"></ellipse>

  
  <rect x="250" y="230" width="200" height="36" rx="6" fill="rgba(201,168,76,0.18)" stroke="#c9a84c" stroke-width="1.5"></rect>
  <text x="350" y="254" fill="#fff" font-size="14" font-family="Cairo,sans-serif" font-weight="800" text-anchor="middle">RANK #1</text>
  <text x="260" y="280" fill="#c9a84c" font-size="11" font-family="Inter,sans-serif" font-weight="700">↑ +412%</text>
  <text x="350" y="280" fill="#fff" font-size="11" font-family="Inter,sans-serif" text-anchor="middle">organic clicks</text>
  <line x1="260" y1="292" x2="440" y2="292" stroke="#2a2f3e"></line>
  <text x="260" y="312" fill="#888" font-size="10" font-family="Inter,sans-serif">Position</text>
  <text x="350" y="312" fill="#fff" font-size="13" font-family="Cairo,sans-serif" font-weight="700" text-anchor="middle">1 / 10</text>
  <text x="440" y="312" fill="#c9a84c" font-size="10" font-family="Inter,sans-serif" text-anchor="end">CTR 31%</text>

  
  <line x1="465" y1="395" x2="640" y2="540" stroke="#c9a84c" stroke-width="22" stroke-linecap="round"></line>
  <line x1="465" y1="395" x2="640" y2="540" stroke="#d4b85f" stroke-width="6" stroke-linecap="round" stroke-opacity="0.5"></line>

  <text x="400" y="60" fill="#c9a84c" font-size="13" font-family="Inter,sans-serif" font-weight="700" letter-spacing="6" text-anchor="middle">GROWTH INTELLIGENCE</text>
  <text x="400" y="565" fill="#666c7a" font-size="11" font-family="Inter,sans-serif" font-weight="700" letter-spacing="3" text-anchor="middle">EVERY SEARCH IS A REVENUE OPPORTUNITY</text>
</svg>