<svg xmlns="http://www.w3.org/2000/svg" viewBox="0 0 800 600" preserveAspectRatio="xMidYMid meet" role="img" aria-label="All Growth Services — service stack">
  <defs>
    <linearGradient id="bg" x1="0" y1="0" x2="0" y2="1"><stop offset="0%" stop-color="#0a0f1e"></stop><stop offset="100%" stop-color="#0d1426"></stop></linearGradient>
    <pattern id="dots" x="0" y="0" width="32" height="32" patternUnits="userSpaceOnUse"><circle cx="16" cy="16" r="1" fill="#c9a84c" fill-opacity="0.08"></circle></pattern>
    <radialGradient id="glow"><stop offset="0%" stop-color="#c9a84c" stop-opacity="0.15"></stop><stop offset="100%" stop-color="#c9a84c" stop-opacity="0"></stop></radialGradient>
    <linearGradient id="goldF" x1="0" y1="0" x2="1" y2="1"><stop offset="0%" stop-color="#c9a84c"></stop><stop offset="100%" stop-color="#d4b85f"></stop></linearGradient>
  </defs>
  <rect width="800" height="600" fill="url(#bg)"></rect>
  <rect width="800" height="600" fill="url(#dots)"></rect>
  <ellipse cx="400" cy="320" rx="340" ry="260" fill="url(#glow)"></ellipse>

  
  <g font-family="Cairo,sans-serif">
    
    <g>
      <rect x="80" y="180" width="160" height="280" rx="14" fill="url(#goldF)"></rect>
      <g transform="translate(160,240)" fill="none" stroke="#0a0f1e" stroke-width="2.5" stroke-linecap="round">
        <circle cx="0" cy="0" r="22"></circle><line x1="16" y1="16" x2="28" y2="28"></line>
      </g>
      <text x="160" y="320" fill="#0a0f1e" font-size="17" font-weight="800" text-anchor="middle">SEO</text>
      <text x="160" y="345" fill="#0a0f1e" font-size="11" font-family="Inter,sans-serif" text-anchor="middle" opacity="0.7">On-page · Off-page</text>
      <text x="160" y="362" fill="#0a0f1e" font-size="11" font-family="Inter,sans-serif" text-anchor="middle" opacity="0.7">Technical · Local</text>
      <rect x="100" y="395" width="120" height="2" fill="#0a0f1e" opacity="0.3"></rect>
      <text x="160" y="430" fill="#0a0f1e" font-size="12" font-family="Inter,sans-serif" font-weight="700" text-anchor="middle">CORE OFFERING</text>
    </g>

    
    <g>
      <rect x="260" y="200" width="160" height="260" rx="14" fill="#1a1f2e" stroke="#c9a84c" stroke-width="1.5"></rect>
      <g transform="translate(340,255)" fill="none" stroke="#c9a84c" stroke-width="2.5" stroke-linecap="round" stroke-linejoin="round">
        <rect x="-22" y="-12" width="44" height="32" rx="3"></rect><path d="M-12 20 L-16 28 L-6 24"></path>
      </g>
      <text x="340" y="335" fill="#fff" font-size="15" font-weight="700" text-anchor="middle">Consultation</text>
      <text x="340" y="358" fill="#b0b0b0" font-size="11" font-family="Inter,sans-serif" text-anchor="middle">Strategic advisory</text>
      <text x="340" y="374" fill="#b0b0b0" font-size="11" font-family="Inter,sans-serif" text-anchor="middle">Growth audits</text>
    </g>

    
    <g>
      <rect x="440" y="200" width="160" height="260" rx="14" fill="#1a1f2e" stroke="#c9a84c" stroke-width="1.5"></rect>
      <g transform="translate(520,255)" fill="none" stroke="#c9a84c" stroke-width="2.5" stroke-linecap="round" stroke-linejoin="round">
        <path d="M-18 -15 L18 -15 L24 -5 L24 15 L-24 15 L-24 -5 Z"></path><line x1="-10" y1="0" x2="10" y2="0"></line><circle cx="-12" cy="8" r="2"></circle><circle cx="12" cy="8" r="2"></circle>
      </g>
      <text x="520" y="335" fill="#fff" font-size="15" font-weight="700" text-anchor="middle">Tools</text>
      <text x="520" y="358" fill="#b0b0b0" font-size="11" font-family="Inter,sans-serif" text-anchor="middle">Custom dashboards</text>
      <text x="520" y="374" fill="#b0b0b0" font-size="11" font-family="Inter,sans-serif" text-anchor="middle">Built-for-purpose</text>
    </g>

    
    <g>
      <rect x="620" y="180" width="160" height="280" rx="14" fill="url(#goldF)"></rect>
      <g transform="translate(700,240)" fill="none" stroke="#0a0f1e" stroke-width="2.5" stroke-linecap="round" stroke-linejoin="round">
        <rect x="-22" y="-16" width="44" height="32" rx="2"></rect><line x1="-22" y1="-8" x2="22" y2="-8"></line><circle cx="-15" cy="-12" r="1.5" fill="#0a0f1e"></circle><circle cx="-9" cy="-12" r="1.5" fill="#0a0f1e"></circle>
      </g>
      <text x="700" y="320" fill="#0a0f1e" font-size="17" font-weight="800" text-anchor="middle">Website</text>
      <text x="700" y="345" fill="#0a0f1e" font-size="11" font-family="Inter,sans-serif" text-anchor="middle" opacity="0.7">High-converting</text>
      <text x="700" y="362" fill="#0a0f1e" font-size="11" font-family="Inter,sans-serif" text-anchor="middle" opacity="0.7">Brand-led builds</text>
      <rect x="640" y="395" width="120" height="2" fill="#0a0f1e" opacity="0.3"></rect>
      <text x="700" y="430" fill="#0a0f1e" font-size="12" font-family="Inter,sans-serif" font-weight="700" text-anchor="middle">FOUNDATION</text>
    </g>
  </g>

  <text x="400" y="80" fill="#c9a84c" font-size="13" font-family="Inter,sans-serif" font-weight="700" letter-spacing="6" text-anchor="middle">ALL GROWTH SERVICES</text>
  <text x="400" y="104" fill="#fff" font-size="16" font-family="Cairo,sans-serif" font-weight="700" text-anchor="middle">A Full-Stack Growth Intelligence Stack</text>
  <text x="400" y="500" fill="#666c7a" font-size="11" font-family="Inter,sans-serif" font-weight="700" letter-spacing="3" text-anchor="middle">SEO · CONSULTATION · TOOLS · WEBSITE · STRATEGY</text>
</svg>