<svg xmlns="http://www.w3.org/2000/svg" viewBox="0 0 800 600" preserveAspectRatio="xMidYMid meet" role="img" aria-label="Schema Markup — structured data for rich results">
  <defs>
    <linearGradient id="bg" x1="0" y1="0" x2="0" y2="1"><stop offset="0%" stop-color="#0a0f1e"></stop><stop offset="100%" stop-color="#0d1426"></stop></linearGradient>
    <pattern id="grid" x="0" y="0" width="50" height="50" patternUnits="userSpaceOnUse"><path d="M50 0H0V50" fill="none" stroke="#c9a84c" stroke-opacity="0.045"></path></pattern>
    <radialGradient id="glow"><stop offset="0%" stop-color="#c9a84c" stop-opacity="0.15"></stop><stop offset="100%" stop-color="#c9a84c" stop-opacity="0"></stop></radialGradient>
  </defs>
  <rect width="800" height="600" fill="url(#bg)"></rect>
  <rect width="800" height="600" fill="url(#grid)"></rect>
  <ellipse cx="400" cy="320" rx="340" ry="260" fill="url(#glow)"></ellipse>

  
  <rect x="60" y="140" width="320" height="360" rx="12" fill="#1a1f2e" stroke="#2a2f3e" stroke-width="1.5"></rect>
  <rect x="60" y="140" width="320" height="34" rx="12" fill="#0a0f1e"></rect>
  <rect x="60" y="160" width="320" height="14" fill="#0a0f1e"></rect>
  <circle cx="78" cy="157" r="4" fill="#c9a84c"></circle>
  <circle cx="92" cy="157" r="4" fill="#666c7a"></circle>
  <circle cx="106" cy="157" r="4" fill="#666c7a"></circle>
  <text x="200" y="161" fill="#666c7a" font-size="10" font-family="ui-monospace,monospace" text-anchor="middle">schema.json</text>

  <g font-family="ui-monospace,monospace" font-size="11">
    <text x="78" y="200" fill="#666c7a">{</text>
    <text x="92" y="218" fill="#c9a84c">&#34;@context&#34;:</text>
    <text x="178" y="218" fill="#b0b0b0">&#34;schema.org&#34;,</text>
    <text x="92" y="236" fill="#c9a84c">&#34;@type&#34;:</text>
    <text x="158" y="236" fill="#d4b85f">&#34;Organization&#34;,</text>
    <text x="92" y="254" fill="#c9a84c">&#34;name&#34;:</text>
    <text x="152" y="254" fill="#fff">&#34;upranked.io&#34;,</text>
    <text x="92" y="272" fill="#c9a84c">&#34;url&#34;:</text>
    <text x="142" y="272" fill="#fff">&#34;upranked.io&#34;,</text>
    <text x="92" y="290" fill="#c9a84c">&#34;@type&#34;:</text>
    <text x="158" y="290" fill="#d4b85f">&#34;LocalBusiness&#34;,</text>
    <text x="92" y="308" fill="#c9a84c">&#34;address&#34;:</text>
    <text x="172" y="308" fill="#fff">&#34;Dubai, UAE&#34;,</text>
    <text x="92" y="326" fill="#c9a84c">&#34;aggregateRating&#34;:</text>
    <text x="92" y="344" fill="#c9a84c">&#34;ratingValue&#34;:</text>
    <text x="196" y="344" fill="#fff">&#34;4.9&#34;,</text>
    <text x="92" y="362" fill="#c9a84c">&#34;reviewCount&#34;:</text>
    <text x="194" y="362" fill="#fff">&#34;127&#34;,</text>
    <text x="92" y="380" fill="#c9a84c">&#34;serviceType&#34;:</text>
    <text x="194" y="380" fill="#d4b85f">&#34;SEO&#34;,</text>
    <text x="92" y="398" fill="#c9a84c">&#34;areaServed&#34;:</text>
    <text x="184" y="398" fill="#fff">&#34;GCC&#34;,</text>
    <text x="78" y="416" fill="#666c7a">}</text>
  </g>

  
  <path d="M 395 320 L 425 320" stroke="#c9a84c" stroke-width="2"></path>
  <path d="M 420 313 L 430 320 L 420 327" fill="none" stroke="#c9a84c" stroke-width="2" stroke-linecap="round" stroke-linejoin="round"></path>

  
  <rect x="440" y="160" width="300" height="320" rx="12" fill="#1a1f2e" stroke="#c9a84c" stroke-width="1.5"></rect>
  <rect x="440" y="160" width="300" height="32" rx="12" fill="#0a0f1e"></rect>
  <text x="590" y="180" fill="#c9a84c" font-size="10" font-family="Inter,sans-serif" font-weight="700" letter-spacing="2" text-anchor="middle">RICH RESULT</text>

  
  <g transform="translate(460,210)">
    <polygon points="10,0 13,7 20,7 14,11 16,18 10,14 4,18 6,11 0,7 7,7" fill="#c9a84c"></polygon>
    <polygon points="35,0 38,7 45,7 39,11 41,18 35,14 29,18 31,11 25,7 32,7" fill="#c9a84c"></polygon>
    <polygon points="60,0 63,7 70,7 64,11 66,18 60,14 54,18 56,11 50,7 57,7" fill="#c9a84c"></polygon>
    <polygon points="85,0 88,7 95,7 89,11 91,18 85,14 79,18 81,11 75,7 82,7" fill="#c9a84c"></polygon>
    <polygon points="110,0 113,7 120,7 114,11 116,18 110,14 104,18 106,11 100,7 107,7" fill="#c9a84c"></polygon>
    <text x="135" y="14" fill="#fff" font-size="12" font-family="Cairo,sans-serif" font-weight="700">4.9 · 127 reviews</text>
  </g>

  
  <text x="460" y="265" fill="#c9a84c" font-size="16" font-family="Cairo,sans-serif" font-weight="700">upranked.io · Premium SEO</text>
  <text x="460" y="285" fill="#888" font-size="11" font-family="Inter,sans-serif">upranked.io</text>
  <text x="460" y="308" fill="#b0b0b0" font-size="11" font-family="Inter,sans-serif">Growth Intelligence Lab for high-value</text>
  <text x="460" y="324" fill="#b0b0b0" font-size="11" font-family="Inter,sans-serif">businesses in Dubai &amp; GCC. APEX…</text>

  
  <line x1="460" y1="345" x2="720" y2="345" stroke="#2a2f3e"></line>
  <text x="460" y="364" fill="#c9a84c" font-size="10" font-family="Inter,sans-serif" font-weight="700" letter-spacing="1">FAQ — STRUCTURED</text>
  <g>
    <rect x="460" y="378" width="260" height="22" rx="5" fill="rgba(201,168,76,0.08)"></rect>
    <text x="470" y="393" fill="#fff" font-size="11" font-family="Inter,sans-serif" font-weight="600">▾ What is the APEX Framework?</text>
  </g>
  <g>
    <rect x="460" y="406" width="260" height="22" rx="5" fill="rgba(201,168,76,0.08)"></rect>
    <text x="470" y="421" fill="#fff" font-size="11" font-family="Inter,sans-serif" font-weight="600">▾ Do you serve clients outside UAE?</text>
  </g>
  <g>
    <rect x="460" y="434" width="260" height="22" rx="5" fill="rgba(201,168,76,0.08)"></rect>
    <text x="470" y="449" fill="#fff" font-size="11" font-family="Inter,sans-serif" font-weight="600">▾ How long until I see results?</text>
  </g>

  <text x="400" y="80" fill="#c9a84c" font-size="13" font-family="Inter,sans-serif" font-weight="700" letter-spacing="6" text-anchor="middle">SCHEMA MARKUP</text>
  <text x="400" y="104" fill="#fff" font-size="16" font-family="Cairo,sans-serif" font-weight="700" text-anchor="middle">Structured Data → Rich Results</text>
  <text x="400" y="540" fill="#666c7a" font-size="11" font-family="Inter,sans-serif" font-weight="700" letter-spacing="3" text-anchor="middle">JSON-LD · ORGANIZATION · FAQ · LOCALBUSINESS</text>
</svg>