<svg xmlns="http://www.w3.org/2000/svg" viewBox="0 0 800 600" preserveAspectRatio="xMidYMid meet" role="img" aria-label="upranked.io organic traffic growth chart">
  <defs>
    <linearGradient id="bgFade" x1="0" y1="0" x2="0" y2="1">
      <stop offset="0%" stop-color="#0a0f1e"></stop>
      <stop offset="100%" stop-color="#0d1426"></stop>
    </linearGradient>
    <linearGradient id="areaG" x1="0" y1="0" x2="0" y2="1">
      <stop offset="0%" stop-color="#c9a84c" stop-opacity="0.45"></stop>
      <stop offset="100%" stop-color="#c9a84c" stop-opacity="0"></stop>
    </linearGradient>
    <radialGradient id="glow1" cx="50%" cy="50%" r="50%">
      <stop offset="0%" stop-color="#c9a84c" stop-opacity="0.18"></stop>
      <stop offset="100%" stop-color="#c9a84c" stop-opacity="0"></stop>
    </radialGradient>
    <pattern id="grid1" x="0" y="0" width="50" height="50" patternUnits="userSpaceOnUse">
      <path d="M50 0H0V50" fill="none" stroke="#c9a84c" stroke-opacity="0.05"></path>
    </pattern>
    <filter id="lineGlow" x="-20%" y="-20%" width="140%" height="140%">
      <feGaussianBlur stdDeviation="3" result="b"></feGaussianBlur>
      <feMerge><feMergeNode in="b"></feMergeNode><feMergeNode in="SourceGraphic"></feMergeNode></feMerge>
    </filter>
  </defs>
  <rect width="800" height="600" fill="url(#bgFade)"></rect>
  <rect width="800" height="600" fill="url(#grid1)"></rect>
  <ellipse cx="600" cy="300" rx="350" ry="280" fill="url(#glow1)"></ellipse>

  
  <line x1="80" y1="120" x2="740" y2="120" stroke="#2a2f3e" stroke-width="1" stroke-dasharray="2 4"></line>
  <text x="70" y="124" fill="#666c7a" font-size="11" font-family="Inter,sans-serif" text-anchor="end">1m</text>
  <line x1="80" y1="220" x2="740" y2="220" stroke="#2a2f3e" stroke-width="1" stroke-dasharray="2 4"></line>
  <text x="70" y="224" fill="#666c7a" font-size="11" font-family="Inter,sans-serif" text-anchor="end">800k</text>
  <line x1="80" y1="320" x2="740" y2="320" stroke="#2a2f3e" stroke-width="1" stroke-dasharray="2 4"></line>
  <text x="70" y="324" fill="#666c7a" font-size="11" font-family="Inter,sans-serif" text-anchor="end">600k</text>
  <line x1="80" y1="420" x2="740" y2="420" stroke="#2a2f3e" stroke-width="1" stroke-dasharray="2 4"></line>
  <text x="70" y="424" fill="#666c7a" font-size="11" font-family="Inter,sans-serif" text-anchor="end">200k</text>

  
  <path d="M 100 460 L 175 430 L 250 405 L 325 360 L 400 370 L 475 280 L 550 230 L 625 170 L 700 120 L 740 90 L 740 480 L 100 480 Z" fill="url(#areaG)"></path>

  
  <path d="M 100 460 L 175 430 L 250 405 L 325 360 L 400 370 L 475 280 L 550 230 L 625 170 L 700 120 L 740 90" fill="none" stroke="#c9a84c" stroke-width="3.5" stroke-linecap="round" stroke-linejoin="round" filter="url(#lineGlow)"></path>

  
  <g>
    <circle cx="100" cy="460" r="9" fill="#c9a84c" fill-opacity="0.2"></circle>
    <circle cx="100" cy="460" r="5.5" fill="#0a0f1e" stroke="#c9a84c" stroke-width="2.5"></circle>
    <circle cx="100" cy="460" r="2.5" fill="#d4b85f"></circle>
  </g>
  <g>
    <circle cx="250" cy="405" r="9" fill="#c9a84c" fill-opacity="0.2"></circle>
    <circle cx="250" cy="405" r="5.5" fill="#0a0f1e" stroke="#c9a84c" stroke-width="2.5"></circle>
    <circle cx="250" cy="405" r="2.5" fill="#d4b85f"></circle>
  </g>
  <g>
    <circle cx="400" cy="370" r="9" fill="#c9a84c" fill-opacity="0.2"></circle>
    <circle cx="400" cy="370" r="5.5" fill="#0a0f1e" stroke="#c9a84c" stroke-width="2.5"></circle>
    <circle cx="400" cy="370" r="2.5" fill="#d4b85f"></circle>
  </g>
  <g>
    <circle cx="550" cy="230" r="9" fill="#c9a84c" fill-opacity="0.2"></circle>
    <circle cx="550" cy="230" r="5.5" fill="#0a0f1e" stroke="#c9a84c" stroke-width="2.5"></circle>
    <circle cx="550" cy="230" r="2.5" fill="#d4b85f"></circle>
  </g>
  <g>
    <circle cx="700" cy="120" r="9" fill="#c9a84c" fill-opacity="0.2"></circle>
    <circle cx="700" cy="120" r="5.5" fill="#0a0f1e" stroke="#c9a84c" stroke-width="2.5"></circle>
    <circle cx="700" cy="120" r="2.5" fill="#d4b85f"></circle>
  </g>

  
  <line x1="700" y1="120" x2="700" y2="60" stroke="#c9a84c" stroke-width="1.5" stroke-dasharray="3 3"></line>
  <rect x="610" y="20" width="180" height="42" rx="8" fill="#1a1f2e" stroke="#c9a84c" stroke-width="1.5"></rect>
  <text x="625" y="38" fill="#c9a84c" font-size="11" font-family="Inter,sans-serif" font-weight="700" letter-spacing="1.5">+412% ORGANIC</text>
  <text x="625" y="54" fill="#fff" font-size="13" font-family="Cairo,sans-serif" font-weight="700">12-month engagement</text>

  
  <text x="100" y="510" fill="#666c7a" font-size="11" font-family="Inter,sans-serif" text-anchor="middle">M1</text>
  <text x="250" y="510" fill="#666c7a" font-size="11" font-family="Inter,sans-serif" text-anchor="middle">M3</text>
  <text x="400" y="510" fill="#666c7a" font-size="11" font-family="Inter,sans-serif" text-anchor="middle">M6</text>
  <text x="550" y="510" fill="#666c7a" font-size="11" font-family="Inter,sans-serif" text-anchor="middle">M9</text>
  <text x="740" y="510" fill="#666c7a" font-size="11" font-family="Inter,sans-serif" text-anchor="middle">M12</text>

  <text x="400" y="555" fill="#666c7a" font-size="11" font-family="Inter,sans-serif" font-weight="700" letter-spacing="3" text-anchor="middle">CLIENT ORGANIC TRAFFIC GROWTH</text>
</svg>