<svg xmlns="http://www.w3.org/2000/svg" viewBox="0 0 800 600" preserveAspectRatio="xMidYMid meet" role="img" aria-label="Bilingual SEO — Arabic and English">
  <defs>
    <linearGradient id="bg" x1="0" y1="0" x2="0" y2="1"><stop offset="0%" stop-color="#0a0f1e"></stop><stop offset="100%" stop-color="#0d1426"></stop></linearGradient>
    <pattern id="grid" x="0" y="0" width="50" height="50" patternUnits="userSpaceOnUse"><path d="M50 0H0V50" fill="none" stroke="#c9a84c" stroke-opacity="0.045"></path></pattern>
    <radialGradient id="glow"><stop offset="0%" stop-color="#c9a84c" stop-opacity="0.15"></stop><stop offset="100%" stop-color="#c9a84c" stop-opacity="0"></stop></radialGradient>
  </defs>
  <rect width="800" height="600" fill="url(#bg)"></rect>
  <rect width="800" height="600" fill="url(#grid)"></rect>
  <ellipse cx="400" cy="320" rx="340" ry="260" fill="url(#glow)"></ellipse>

  
  <g>
    <rect x="80" y="160" width="290" height="320" rx="14" fill="#1a1f2e" stroke="#c9a84c" stroke-width="1.5"></rect>
    <rect x="80" y="160" width="290" height="42" rx="14" fill="#0a0f1e"></rect>
    <rect x="80" y="186" width="290" height="16" fill="#0a0f1e"></rect>
    <text x="98" y="186" fill="#c9a84c" font-size="11" font-family="Inter,sans-serif" font-weight="700" letter-spacing="2">EN · UNITED ARAB EMIRATES</text>
    <circle cx="350" cy="181" r="4" fill="#c9a84c"></circle>

    
    <rect x="100" y="222" width="250" height="32" rx="16" fill="#2a2f3e"></rect>
    <circle cx="118" cy="238" r="6" fill="none" stroke="#c9a84c" stroke-width="1.5"></circle>
    <line x1="122" y1="242" x2="126" y2="246" stroke="#c9a84c" stroke-width="1.5"></line>
    <text x="134" y="242" fill="#b0b0b0" font-size="11" font-family="Inter,sans-serif">premium seo agency dubai</text>

    
    <text x="100" y="290" fill="#fff" font-size="22" font-family="Cairo,sans-serif" font-weight="800">Uplevel your</text>
    <text x="100" y="318" fill="#c9a84c" font-size="22" font-family="Cairo,sans-serif" font-weight="800">digital growth.</text>

    
    <line x1="100" y1="340" x2="350" y2="340" stroke="#2a2f3e"></line>
    <text x="100" y="360" fill="#b0b0b0" font-size="11" font-family="Inter,sans-serif">Premium SEO for high-value</text>
    <text x="100" y="376" fill="#b0b0b0" font-size="11" font-family="Inter,sans-serif">businesses across the GCC.</text>

    
    <rect x="100" y="410" width="140" height="36" rx="8" fill="#c9a84c"></rect>
    <text x="170" y="433" fill="#0a0f1e" font-size="12" font-family="Cairo,sans-serif" font-weight="700" text-anchor="middle">Book a Call →</text>
  </g>

  
  <line x1="400" y1="180" x2="400" y2="460" stroke="#2a2f3e" stroke-dasharray="4 4"></line>
  <circle cx="400" cy="320" r="32" fill="#0a0f1e" stroke="#c9a84c" stroke-width="2"></circle>
  <text x="400" y="318" fill="#c9a84c" font-size="9" font-family="Inter,sans-serif" font-weight="700" letter-spacing="1" text-anchor="middle">RTL ↔ LTR</text>
  <text x="400" y="332" fill="#fff" font-size="10" font-family="Cairo,sans-serif" font-weight="700" text-anchor="middle">hreflang</text>

  
  <g>
    <rect x="430" y="160" width="290" height="320" rx="14" fill="#1a1f2e" stroke="#c9a84c" stroke-width="1.5"></rect>
    <rect x="430" y="160" width="290" height="42" rx="14" fill="#0a0f1e"></rect>
    <rect x="430" y="186" width="290" height="16" fill="#0a0f1e"></rect>
    <text x="704" y="186" fill="#c9a84c" font-size="11" font-family="Inter,sans-serif" font-weight="700" letter-spacing="2" text-anchor="end">AR · الإمارات</text>
    <circle cx="450" cy="181" r="4" fill="#c9a84c"></circle>

    
    <rect x="450" y="222" width="250" height="32" rx="16" fill="#2a2f3e"></rect>
    <text x="682" y="242" fill="#b0b0b0" font-size="11" font-family="Cairo,sans-serif" text-anchor="end">شركة سيو متميزة في دبي</text>
    <circle cx="682" cy="238" r="6" fill="none" stroke="#c9a84c" stroke-width="1.5"></circle>
    <line x1="678" y1="242" x2="674" y2="246" stroke="#c9a84c" stroke-width="1.5"></line>

    
    <text x="700" y="290" fill="#fff" font-size="22" font-family="Cairo,sans-serif" font-weight="800" text-anchor="end">ارتقِ بنموك</text>
    <text x="700" y="318" fill="#c9a84c" font-size="22" font-family="Cairo,sans-serif" font-weight="800" text-anchor="end">الرقمي.</text>

    
    <line x1="450" y1="340" x2="700" y2="340" stroke="#2a2f3e"></line>
    <text x="700" y="360" fill="#b0b0b0" font-size="11" font-family="Cairo,sans-serif" text-anchor="end">سيو متميز للشركات الرائدة</text>
    <text x="700" y="376" fill="#b0b0b0" font-size="11" font-family="Cairo,sans-serif" text-anchor="end">في جميع أنحاء الخليج.</text>

    
    <rect x="560" y="410" width="140" height="36" rx="8" fill="#c9a84c"></rect>
    <text x="630" y="433" fill="#0a0f1e" font-size="12" font-family="Cairo,sans-serif" font-weight="700" text-anchor="middle">← احجز مكالمة</text>
  </g>

  <text x="400" y="80" fill="#c9a84c" font-size="13" font-family="Inter,sans-serif" font-weight="700" letter-spacing="6" text-anchor="middle">BILINGUAL SEO</text>
  <text x="400" y="104" fill="#fff" font-size="16" font-family="Cairo,sans-serif" font-weight="700" text-anchor="middle">Arabic · English · Full RTL Support</text>
  <text x="400" y="540" fill="#666c7a" font-size="11" font-family="Inter,sans-serif" font-weight="700" letter-spacing="3" text-anchor="middle">DUAL-LANGUAGE INDEX · ONE BRAND</text>
</svg>